<mxfile host="app.diagrams.net" modified="2023-03-31T21:51:25.272Z" agent="Mozilla/5.0 (Windows NT 10.0; Win64; x64) AppleWebKit/537.36 (KHTML, like Gecko) Chrome/111.0.0.0 Safari/537.36" version="21.1.1" etag="GuYDZm0m9ADsoEB19HZF" type="github">
  <diagram name="Page-1" id="NUbrjfMySzkF4-bIAN7A">
    <mxGraphModel>
      <root>
        <mxCell id="0" />
        <mxCell id="1" parent="0" />
      </root>
    </mxGraphModel>
  </diagram>
</mxfile>
